#!OML:ASF E:\Steps\Project 1\Capture day 1\Session 2\Subject.ASF
:FULLY-SPECIFIED
:DEGREES
652
root 4.10817 17.8961 16.0901 -155.431 -2.94002 176.023
lowerback -29.7454 -2.34103 -8.34388
upperback -1.05138 -0.848521 -0.193285
thorax 14.5603 -1.19079 3.91375
lowerneck -0.797048 -0.828786 -0.405244
upperneck 21.9883 -3.59212 2.28078
head 6.87677 -2.34075 0.495345
rclavicle 2.79541e-015 -3.11098e-014
rhumerus -40.9213 -18.6424 -76.1098
rradius 29.2158
rwrist -0.508728
rhand -8.85573 -54.7615
rfingers 7.12502
rthumb 17.0853 635.97
lclavicle 2.79541e-015 -3.11098e-014
lhumerus -30.1869 -0.754728 82.7154
lradius 23.4719
lwrist -2.7336
lhand -22.2124 -13.2807
lfingers 7.12502
lthumb 4.20363 16.6575
rfemur -20.6414 7.93337 18.2941
rtibia 9.99009
rfoot -20.4435 -2.7162
rtoes -16.6367
lfemur -20.4079 -9.72812 -23.3216
ltibia 7.16486
lfoot -7.18647 -3.99873
ltoes -25.989
653
root 4.10391 17.8932 16.0862 -155.508 -2.90648 175.949
lowerback -29.7254 -2.3785 -8.50114
upperback -1.03661 -0.845426 -0.178749
thorax 14.568 -1.20012 4.01587
lowerneck -0.710387 -0.83797 -0.520788
upperneck 21.8647 -3.61108 2.43238
head 6.826 -2.34582 0.565237
rclavicle -1.19768e-014 -1.2424e-014
rhumerus -40.8637 -18.7786 -75.9622
rradius 29.1186
rwrist -0.322271
rhand -8.91101 -55.015
rfingers 7.12502
rthumb 17.0321 635.712
lclavicle -1.19768e-014 -1.2424e-014
lhumerus -30.1609 -0.473546 82.6286
lradius 23.4511
lwrist -3.39294
lhand -21.6166 -12.9308
lfingers 7.12502
lthumb 4.77896 16.9953
rfemur -20.4814 7.90318 18.1999
rtibia 9.89577
rfoot -20.4057 -2.70114
rtoes -16.6426
lfemur -20.2971 -9.72834 -23.4506
ltibia 7.15272
lfoot -7.1558 -4.09445
ltoes -25.1595
654
root 4.09882 17.8933 16.0827 -155.513 -2.8936 175.93
lowerback -29.8186 -2.37883 -8.53484
upperback -1.02703 -0.824369 -0.201044
thorax 14.6178 -1.1956 4.01553
lowerneck -0.521837 -0.829897 -0.590603
upperneck 21.6757 -3.61584 2.63031
head 6.73634 -2.33904 0.645095
rclavicle -8.79622e-015 -9.93923e-017
rhumerus -40.834 -18.7968 -75.9891
rradius 29.155
rwrist -0.413053
rhand -9.03547 -55.5031
rfingers 7.12502
rthumb 16.9123 635.213
lclavicle -8.79622e-015 -9.93923e-017
lhumerus -30.1766 -0.535546 82.6223
lradius 23.4299
lwrist -3.50622
lhand -21.5918 -12.8462
lfingers 7.12502
lthumb 4.80291 17.0794
rfemur -20.4424 7.89005 18.1471
rtibia 9.87258
rfoot -20.4291 -2.63212
rtoes -16.0347
lfemur -20.2449 -9.85985 -23.4748
ltibia 7.08174
lfoot -7.27202 -4.03742
ltoes -25.1496
655
root 4.09537 17.8948 16.0824 -155.497 -2.87187 175.981
lowerback -29.871 -2.31674 -8.46348
upperback -1.06343 -0.763056 -0.27501
thorax 14.5888 -1.16327 3.91869
lowerneck -0.319531 -0.867866 -0.397594
upperneck 21.439 -3.66462 2.67704
head 6.62403 -2.3432 0.63011
rclavicle 5.18083e-015 -2.8128e-014
rhumerus -40.9369 -18.8473 -76.1081
rradius 29.2452
rwrist -0.619583
rhand -9.13163 -55.1988
rfingers 7.12502
rthumb 16.8197 635.51
lclavicle 5.18083e-015 -2.8128e-014
lhumerus -30.3211 -1.17701 82.7032
lradius 23.5342
lwrist -2.83118
lhand -21.8951 -12.7685
lfingers 7.12502
lthumb 4.51004 17.1635
rfemur -20.4721 7.90582 18.1818
rtibia 9.86404
rfoot -20.4292 -2.57543
rtoes -15.651
lfemur -20.2419 -9.86788 -23.4198
ltibia 7.04035
lfoot -7.36196 -4.00451
ltoes -25.5491
656
root 4.09271 17.8958 16.0842 -155.515 -2.89572 176.043
lowerback -29.7934 -2.24658 -8.38188
upperback -1.12265 -0.707651 -0.34595
thorax 14.4755 -1.12876 3.82034
lowerneck -0.155708 -0.931762 -0.187209
upperneck 21.0866 -3.7035 2.65149
head 6.47962 -2.33821 0.591132
rclavicle 5.06901e-015 -1.59028e-015
rhumerus -41.1512 -19.0065 -76.1402
rradius 29.3707
rwrist -0.651479
rhand -9.02626 -54.8924
rfingers 7.12502
rthumb 16.9212 635.825
lclavicle 5.06901e-015 -1.59028e-015
lhumerus -30.4286 -1.68309 82.76
lradius 23.5861
lwrist -2.40899
lhand -22.0444 -12.6972
lfingers 7.12502
lthumb 4.36591 17.2378
rfemur -20.4404 7.94243 18.2462
rtibia 9.79979
rfoot -20.3895 -2.63344
rtoes -15.9705
lfemur -20.2681 -9.75306 -23.3669
ltibia 7.11218
lfoot -7.33143 -4.10902
ltoes -25.7818
657
root 4.08784 17.8962 16.0861 -155.504 -2.92532 176.091
lowerback -29.7257 -2.21266 -8.29909
upperback -1.18756 -0.705873 -0.369533
thorax 14.3684 -1.1195 3.75168
lowerneck 0.0943025 -0.746523 -0.0460768
upperneck 20.5863 -3.32668 2.47739
head 6.26481 -2.14115 0.542959
rclavicle 1.26228e-014 -4.85035e-014
rhumerus -41.3016 -19.0956 -76.0966
rradius 29.4364
rwrist -0.58496
rhand -8.88219 -55.0284
rfingers 7.12502
rthumb 17.0598 635.701
lclavicle 1.26228e-014 -4.85035e-014
lhumerus -30.4632 -1.64949 82.7631
lradius 23.4684
lwrist -2.411
lhand -22.1171 -12.9327
lfingers 7.12502
lthumb 4.29566 17.0038
rfemur -20.4504 7.9108 18.2893
rtibia 9.79419
rfoot -20.4065 -2.6421
rtoes -16.2932
lfemur -20.3427 -9.74841 -23.3182
ltibia 7.18637
lfoot -7.231 -4.1668
ltoes -24.8735
658
root 4.08101 17.8951 16.0875 -155.458 -2.87255 176.137
lowerback -29.76 -2.15213 -8.22244
upperback -1.23184 -0.656001 -0.401352
thorax 14.3255 -1.0924 3.69418
lowerneck -0.338347 -0.905769 -0.19262
upperneck 21.1902 -3.67495 2.68347
head 6.54469 -2.31854 0.600304
rclavicle -7.77745e-015 -2.52457e-014
rhumerus -41.3477 -19.3504 -75.979
rradius 29.3786
rwrist -0.383938
rhand -8.8195 -55.0999
rfingers 7.12502
rthumb 17.1202 635.634
lclavicle -7.77745e-015 -2.52457e-014
lhumerus -30.5319 -1.71958 82.7969
lradius 23.4152
lwrist -2.25256
lhand -22.2233 -13.2426
lfingers 7.12502
lthumb 4.19316 16.6958
rfemur -20.5414 7.84891 18.3104
rtibia 9.85594
rfoot -20.4455 -2.53609
rtoes -16.3781
lfemur -20.418 -9.79917 -23.2911
ltibia 7.19791
lfoot -7.24823 -4.085
ltoes -24.0268
659
root 4.07467 17.894 16.0872 -155.42 -2.82106 176.128
lowerback -29.8208 -2.10411 -8.19727
upperback -1.25406 -0.598148 -0.444028
thorax 14.3188 -1.06596 3.65513
lowerneck 0.204091 -0.830137 0.0909686
upperneck 20.501 -3.46332 2.55365
head 6.22071 -2.19489 0.538939
rclavicle -1.10574e-014 1.72943e-014
rhumerus -41.3637 -19.7176 -75.8116
rradius 29.2804
rwrist -0.126472
rhand -8.9147 -55.0614
rfingers 7.12502
rthumb 17.0285 635.665
lclavicle -1.10574e-014 1.72943e-014
lhumerus -30.5919 -1.88779 82.8315
lradius 23.4433
lwrist -2.01541
lhand -22.1054 -13.4721
lfingers 7.12502
lthumb 4.30696 16.4641
rfemur -20.5913 7.77219 18.2787
rtibia 9.85867
rfoot -20.4509 -2.46565
rtoes -16.5011
lfemur -20.4319 -9.8125 -23.3405
ltibia 7.15713
lfoot -7.34847 -4.03777
ltoes -24.2403
660
root 4.06984 17.8939 16.086 -155.387 -2.81681 176.121
lowerback -29.8734 -2.09194 -8.18305
upperback -1.2648 -0.584673 -0.457471
thorax 14.3281 -1.06037 3.63675
lowerneck -0.274364 -0.987176 -0.242322
upperneck 20.9899 -3.77863 2.82529
head 6.47434 -2.3562 0.651456
rclavicle -6.4605e-016 -1.66979e-014
rhumerus -41.343 -19.7098 -75.8098
rradius 29.2946
rwrist -0.234144
rhand -9.00369 -55.1507
rfingers 7.12502
rthumb 16.9429 635.568
lclavicle -6.4605e-016 -1.66979e-014
lhumerus -30.6544 -2.07724 82.8757
lradius 23.5338
lwrist -1.75551
lhand -21.801 -13.6848
lfingers 7.12502
lthumb 4.60097 16.2453
rfemur -20.5714 7.68524 18.2654
rtibia 9.74774
rfoot -20.3885 -2.44017
rtoes -16.8003
lfemur -20.4483 -9.78475 -23.371
ltibia 7.13888
lfoot -7.26044 -4.18986
ltoes -23.249
661
root 4.06577 17.8945 16.0846 -155.39 -2.86539 176.181
lowerback -29.9077 -2.12318 -8.16706
upperback -1.2466 -0.631361 -0.39506
thorax 14.3722 -1.08216 3.6776
lowerneck -0.455014 -0.995781 -0.231286
upperneck 21.1101 -3.79071 2.77981
head 6.54351 -2.36146 0.630528
rclavicle -2.83268e-015 -8.94531e-015
rhumerus -41.226 -19.4383 -75.8726
rradius 29.3337
rwrist -0.488715
rhand -8.88709 -55.3728
rfingers 7.12502
rthumb 17.0551 635.356
lclavicle -2.83268e-015 -8.94531e-015
lhumerus -30.7065 -2.24535 82.9919
lradius 23.5787
lwrist -1.71987
lhand -21.9428 -13.6582
lfingers 7.12502
lthumb 4.46403 16.2748
rfemur -20.5022 7.70188 18.3389
rtibia 9.5978
rfoot -20.2691 -2.55981
rtoes -17.4781
lfemur -20.4625 -9.76129 -23.3061
ltibia 7.19426
lfoot -7.08576 -4.30873
ltoes -22.0587
662
root 4.0626 17.895 16.0831 -155.417 -2.8804 176.218
lowerback -29.9007 -2.19383 -8.23695
upperback -1.25361 -0.714129 -0.28978
thorax 14.3731 -1.12547 3.79771
lowerneck -0.350283 -1.02531 -0.344016
upperneck 20.8884 -3.79671 2.82236
head 6.45639 -2.36441 0.667041
rclavicle 3.67752e-015 7.95139e-015
rhumerus -41.1513 -19.1783 -75.8268
rradius 29.3036
rwrist -0.61192
rhand -8.78869 -55.2616
rfingers 7.12502
rthumb 17.1498 635.475
lclavicle 3.67752e-015 7.95139e-015
lhumerus -30.7509 -2.11415 83.0955
lradius 23.4753
lwrist -2.17096
lhand -22.3071 -13.4187
lfingers 7.12502
lthumb 4.11217 16.5214
rfemur -20.4553 7.65661 18.3905
rtibia 9.53896
rfoot -20.2073 -2.58667
rtoes -17.9998
lfemur -20.4124 -9.78193 -23.2681
ltibia 7.15843
lfoot -7.08138 -4.17223
ltoes -22.8283
